<?xml version="1.0" standalone="no"?>
<!DOCTYPE svg PUBLIC "-//W3C//DTD SVG 20010904//EN"
 "http://www.w3.org/TR/2001/REC-SVG-20010904/DTD/svg10.dtd">
<svg version="1.0" xmlns="http://www.w3.org/2000/svg"
 width="1736.000000pt" height="1800.000000pt" viewBox="0 0 1736.000000 1800.000000"
 preserveAspectRatio="xMidYMid meet">

<g transform="translate(0.000000,1800.000000) scale(0.100000,-0.100000)"
fill="#000000" stroke="none">
<path d="M1130 9230 l0 -7280 5614 0 5613 0 124 21 c1300 217 2342 1163 2688
2439 31 115 78 353 93 470 20 163 17 683 -5 835 -82 554 -251 1050 -513 1506
-283 496 -544 847 -970 1309 -157 170 -426 439 -607 608 l-89 82 283 278 c418
411 686 710 952 1066 471 631 743 1190 876 1806 167 768 110 1455 -176 2124
-99 233 -301 570 -459 766 -401 495 -933 869 -1524 1071 -183 63 -324 99 -567
143 l-192 36 -5570 0 -5571 0 0 -7280z m11259 6307 c668 -150 1206 -533 1551
-1107 155 -257 253 -533 302 -845 28 -182 30 -510 4 -685 -58 -387 -185 -760
-371 -1090 -175 -311 -538 -806 -839 -1145 -188 -211 -705 -715 -733 -715 -5
0 -48 32 -98 71 -723 570 -1353 983 -1973 1293 -951 476 -1807 684 -2582 627
-354 -26 -677 -118 -1011 -287 -466 -236 -870 -653 -1114 -1149 -137 -280
-213 -535 -257 -865 -17 -129 -17 -547 1 -680 45 -353 142 -671 293 -960 131
-252 272 -444 473 -646 142 -143 233 -218 381 -314 437 -284 935 -422 1529
-422 325 0 527 27 905 123 464 117 830 252 1285 473 642 312 1379 783 2029
1298 147 117 149 118 170 100 12 -10 75 -65 141 -122 170 -147 518 -499 668
-674 437 -513 760 -1006 922 -1409 213 -532 272 -1071 170 -1557 -24 -113
-116 -383 -172 -501 -232 -492 -610 -875 -1098 -1114 -231 -114 -407 -169
-698 -219 l-148 -26 -4969 0 -4970 0 0 6290 0 6290 5043 -3 5042 -2 124 -28z
m-4184 -4618 c684 -65 1550 -435 2500 -1069 260 -173 725 -505 798 -570 12
-10 -251 -213 -533 -411 -959 -675 -1749 -1057 -2499 -1208 -425 -86 -899 -63
-1205 58 -459 183 -786 538 -940 1019 -60 186 -79 316 -80 542 -1 254 30 435
105 628 215 545 664 908 1234 998 198 32 384 35 620 13z"/>
</g>
</svg>
